<?xml version="1.0" encoding="utf-8"?>
<!-- Generator: Adobe Illustrator 25.0.1, SVG Export Plug-In . SVG Version: 6.00 Build 0)  -->
<svg version="1.1" id="Circle_Square" xmlns="http://www.w3.org/2000/svg" xmlns:xlink="http://www.w3.org/1999/xlink" x="0px"
	 y="0px" viewBox="0 0 237.4 109" style="enable-background:new 0 0 237.4 109;" xml:space="preserve">
<style type="text/css">
	.st0{fill:#231F20;}
</style>
<circle class="st0" cx="161.4" cy="34.1" r="3.8"/>
<circle class="st0" cx="148.7" cy="21.2" r="3.8"/>
<circle class="st0" cx="174.7" cy="47.4" r="3.8"/>
<ellipse transform="matrix(0.7071 -0.7071 0.7071 0.7071 12.0146 150.9681)" class="st0" cx="188.2" cy="61" rx="3.8" ry="3.8"/>
<ellipse transform="matrix(0.7071 -0.7071 0.7071 0.7071 5.6012 164.5694)" class="st0" cx="201.5" cy="75.5" rx="3.8" ry="3.8"/>
<ellipse transform="matrix(0.7071 -0.7071 0.7071 0.7071 0.9047 177.9308)" class="st0" cx="215.2" cy="87.9" rx="3.8" ry="3.8"/>
<g>
	<circle class="st0" cx="232.3" cy="21.2" r="3.8"/>
	<circle class="st0" cx="232.3" cy="4.5" r="3.8"/>
	<circle class="st0" cx="232.3" cy="37.8" r="3.8"/>
	<circle class="st0" cx="232.3" cy="54.5" r="3.8"/>
	<circle class="st0" cx="232.3" cy="71.2" r="3.8"/>
	<circle class="st0" cx="232.3" cy="87.9" r="3.8"/>
	<circle class="st0" cx="232.3" cy="104.6" r="3.8"/>
	<circle class="st0" cx="131.6" cy="21.2" r="3.8"/>
	<circle class="st0" cx="131.6" cy="4.4" r="3.8"/>
	<circle class="st0" cx="131.6" cy="37.8" r="3.8"/>
	<circle class="st0" cx="131.6" cy="54.5" r="3.8"/>
	<circle class="st0" cx="131.6" cy="71.2" r="3.8"/>
	<circle class="st0" cx="131.6" cy="87.9" r="3.8"/>
	<circle class="st0" cx="215.3" cy="4.4" r="3.8"/>
	<circle class="st0" cx="198.6" cy="4.4" r="3.8"/>
	<circle class="st0" cx="181.9" cy="4.4" r="3.8"/>
	<circle class="st0" cx="165.3" cy="4.4" r="3.8"/>
	<circle class="st0" cx="148.6" cy="4.4" r="3.8"/>
	<circle class="st0" cx="215.3" cy="104.6" r="3.8"/>
	<circle class="st0" cx="198.6" cy="104.6" r="3.8"/>
	<circle class="st0" cx="182" cy="104.6" r="3.8"/>
	<circle class="st0" cx="165.3" cy="104.6" r="3.8"/>
	<circle class="st0" cx="148.6" cy="104.6" r="3.8"/>
	<circle class="st0" cx="131.6" cy="104.6" r="3.8"/>
</g>
<g>
	<g>
		<circle class="st0" cx="54" cy="19.2" r="3.8"/>
		<circle class="st0" cx="54" cy="36.5" r="3.8"/>
		<circle class="st0" cx="54" cy="53.8" r="3.8"/>
		<circle class="st0" cx="54" cy="71.1" r="3.8"/>
		<circle class="st0" cx="54" cy="88.3" r="3.8"/>
	</g>
	<g>
		<circle class="st0" cx="53.7" cy="4.2" r="3.8"/>
		<circle class="st0" cx="38.3" cy="6.7" r="3.8"/>
		<circle class="st0" cx="24.3" cy="13.7" r="3.8"/>
		<circle class="st0" cx="13.3" cy="24.8" r="3.8"/>
		<circle class="st0" cx="6.2" cy="38.7" r="3.8"/>
		<circle class="st0" cx="3.8" cy="54.1" r="3.8"/>
		<circle class="st0" cx="6.2" cy="69.5" r="3.8"/>
		<circle class="st0" cx="13.3" cy="83.5" r="3.8"/>
		<circle class="st0" cx="24.3" cy="94.5" r="3.8"/>
		<circle class="st0" cx="38.3" cy="101.6" r="3.8"/>
		<circle class="st0" cx="53.7" cy="104.1" r="3.8"/>
		<circle class="st0" cx="69.1" cy="101.6" r="3.8"/>
		<circle class="st0" cx="83" cy="94.5" r="3.8"/>
		<circle class="st0" cx="94.1" cy="83.5" r="3.8"/>
		<circle class="st0" cx="101.2" cy="69.5" r="3.8"/>
		<circle class="st0" cx="103.6" cy="54.1" r="3.8"/>
		<circle class="st0" cx="101.2" cy="38.7" r="3.8"/>
		<circle class="st0" cx="94.1" cy="24.8" r="3.8"/>
		<circle class="st0" cx="83" cy="13.7" r="3.8"/>
		<circle class="st0" cx="69.1" cy="6.6" r="3.8"/>
	</g>
</g>
</svg>
